HIERARCHY
ROOT Hips
{
  OFFSET 0.849866 78.6569 -0.536788
  CHANNELS 6 Xposition Yposition Zposition Zrotation Xrotation Yrotation
  JOINT Bip01_Pelvis
  {
    OFFSET 0 0 0
    CHANNELS 6 Xposition Yposition Zposition Zrotation Xrotation Yrotation
    JOINT BN_Tail_01
    {
      OFFSET -5.52397 -0.332285 0
      CHANNELS 6 Xposition Yposition Zposition Zrotation Xrotation Yrotation
      JOINT BN_Tail_02
      {
        OFFSET 6.48885 -2.032e-005 0
        CHANNELS 6 Xposition Yposition Zposition Zrotation Xrotation Yrotation
        JOINT BN_Tail_03
        {
          OFFSET 7.08759 1.016e-005 -0.00261112
          CHANNELS 6 Xposition Yposition Zposition Zrotation Xrotation Yrotation
          End Site
          {
            OFFSET 0 0 0
          }
        }
      }
    }
    JOINT Bip01_Spine
    {
      OFFSET 4.02227 0.398968 0
      CHANNELS 6 Xposition Yposition Zposition Zrotation Xrotation Yrotation
      JOINT BN_UpperArm_R_01
      {
        OFFSET 4.84413 -3.22857 -3.65581
        CHANNELS 6 Xposition Yposition Zposition Zrotation Xrotation Yrotation
        JOINT BN_Forearm_R_01
        {
          OFFSET 8.51614 0 0
          CHANNELS 6 Xposition Yposition Zposition Zrotation Xrotation Yrotation
          JOINT BN_hand_R_01
          {
            OFFSET 10.1924 0 0
            CHANNELS 6 Xposition Yposition Zposition Zrotation Xrotation Yrotation
            JOINT BN_Finger_R_02
            {
              OFFSET 14.5949 -1.43855 0.585079
              CHANNELS 6 Xposition Yposition Zposition Zrotation Xrotation Yrotation
              End Site
              {
                OFFSET 0 0 0
              }
            }
            JOINT BN_Finger_R_01
            {
              OFFSET 14.4623 0 0
              CHANNELS 6 Xposition Yposition Zposition Zrotation Xrotation Yrotation
              End Site
              {
                OFFSET 0 0 0
              }
            }
          }
        }
      }
      JOINT BN_UpperArm_L_01
      {
        OFFSET 4.84412 -3.22858 3.65557
        CHANNELS 6 Xposition Yposition Zposition Zrotation Xrotation Yrotation
        JOINT BN_Forearm_L_01
        {
          OFFSET 8.51611 0 0
          CHANNELS 6 Xposition Yposition Zposition Zrotation Xrotation Yrotation
          JOINT BN_hand_L_01
          {
            OFFSET 10.1924 0 0
            CHANNELS 6 Xposition Yposition Zposition Zrotation Xrotation Yrotation
            JOINT BN_Finger_L_01
            {
              OFFSET 14.4623 0 0
              CHANNELS 6 Xposition Yposition Zposition Zrotation Xrotation Yrotation
              End Site
              {
                OFFSET 0 0 0
              }
            }
            JOINT BN_Finger_L_02
            {
              OFFSET 14.5949 1.43855 0.585071
              CHANNELS 6 Xposition Yposition Zposition Zrotation Xrotation Yrotation
              End Site
              {
                OFFSET 0 0 0
              }
            }
          }
        }
      }
      JOINT Bip01_R_Thigh
      {
        OFFSET -4.03411 -0.254132 -3.45377
        CHANNELS 6 Xposition Yposition Zposition Zrotation Xrotation Yrotation
        JOINT Bip01_R_Calf
        {
          OFFSET 3.92618 0 0
          CHANNELS 6 Xposition Yposition Zposition Zrotation Xrotation Yrotation
          JOINT Bip01_R_HorseLink
          {
            OFFSET 6.12319 0 0
            CHANNELS 6 Xposition Yposition Zposition Zrotation Xrotation Yrotation
            JOINT Bip01_R_Foot
            {
              OFFSET 9.94776 0 0
              CHANNELS 6 Xposition Yposition Zposition Zrotation Xrotation Yrotation
              JOINT Bip01_R_Toe3
              {
                OFFSET 0.881252 -0.110953 0.0158496
                CHANNELS 6 Xposition Yposition Zposition Zrotation Xrotation Yrotation
                JOINT Bip01_R_Toe31
                {
                  OFFSET 2.32137 0 0
                  CHANNELS 6 Xposition Yposition Zposition Zrotation Xrotation Yrotation
                  JOINT Bip01_R_Toe32
                  {
                    OFFSET 1.63293 0 0
                    CHANNELS 6 Xposition Yposition Zposition Zrotation Xrotation Yrotation
                    JOINT Bip01_R_Toe3Nub
                    {
                      OFFSET 1.72131 0 0
                      CHANNELS 6 Xposition Yposition Zposition Zrotation Xrotation Yrotation
                      End Site
                      {
                        OFFSET 0 0 0
                      }
                    }
                  }
                }
              }
              JOINT Bip01_R_Toe2
              {
                OFFSET 0.994751 0.967285 -1.09428
                CHANNELS 6 Xposition Yposition Zposition Zrotation Xrotation Yrotation
                JOINT Bip01_R_Toe21
                {
                  OFFSET 2.20201 0 0
                  CHANNELS 6 Xposition Yposition Zposition Zrotation Xrotation Yrotation
                  JOINT Bip01_R_Toe22
                  {
                    OFFSET 1.84925 0 0
                    CHANNELS 6 Xposition Yposition Zposition Zrotation Xrotation Yrotation
                    JOINT Bip01_R_Toe2Nub
                    {
                      OFFSET 1.70976 0 0
                      CHANNELS 6 Xposition Yposition Zposition Zrotation Xrotation Yrotation
                      End Site
                      {
                        OFFSET 0 0 0
                      }
                    }
                  }
                }
              }
              JOINT Bip01_R_Toe1
              {
                OFFSET 1.3748 1.34027 -0.0712419
                CHANNELS 6 Xposition Yposition Zposition Zrotation Xrotation Yrotation
                JOINT Bip01_R_Toe11
                {
                  OFFSET 2.26122 0 0
                  CHANNELS 6 Xposition Yposition Zposition Zrotation Xrotation Yrotation
                  JOINT Bip01_R_Toe12
                  {
                    OFFSET 2.22215 0 0
                    CHANNELS 6 Xposition Yposition Zposition Zrotation Xrotation Yrotation
                    JOINT Bip01_R_Toe1Nub
                    {
                      OFFSET 1.61867 0 0
                      CHANNELS 6 Xposition Yposition Zposition Zrotation Xrotation Yrotation
                      End Site
                      {
                        OFFSET 0 0 0
                      }
                    }
                  }
                }
              }
              JOINT Bip01_R_Toe0
              {
                OFFSET 1.40695 0.687986 0.883783
                CHANNELS 6 Xposition Yposition Zposition Zrotation Xrotation Yrotation
                JOINT Bip01_R_Toe01
                {
                  OFFSET 2.26828 0 0
                  CHANNELS 6 Xposition Yposition Zposition Zrotation Xrotation Yrotation
                  JOINT Bip01_R_Toe02
                  {
                    OFFSET 2.09769 0 0
                    CHANNELS 6 Xposition Yposition Zposition Zrotation Xrotation Yrotation
                    JOINT Bip01_R_Toe0Nub
                    {
                      OFFSET 1.53753 0 0
                      CHANNELS 6 Xposition Yposition Zposition Zrotation Xrotation Yrotation
                      End Site
                      {
                        OFFSET 0 0 0
                      }
                    }
                  }
                }
              }
            }
          }
        }
      }
      JOINT Bip01_L_Thigh
      {
        OFFSET -4.03411 -0.254147 3.45377
        CHANNELS 6 Xposition Yposition Zposition Zrotation Xrotation Yrotation
        JOINT Bip01_L_Calf
        {
          OFFSET 3.92616 0 0
          CHANNELS 6 Xposition Yposition Zposition Zrotation Xrotation Yrotation
          JOINT Bip01_L_HorseLink
          {
            OFFSET 6.1232 0 0
            CHANNELS 6 Xposition Yposition Zposition Zrotation Xrotation Yrotation
            JOINT Bip01_L_Foot
            {
              OFFSET 9.94775 0 0
              CHANNELS 6 Xposition Yposition Zposition Zrotation Xrotation Yrotation
              JOINT Bip01_L_Toe3
              {
                OFFSET 0.881246 -0.110986 -0.0157582
                CHANNELS 6 Xposition Yposition Zposition Zrotation Xrotation Yrotation
                JOINT Bip01_L_Toe31
                {
                  OFFSET 2.32136 0 0
                  CHANNELS 6 Xposition Yposition Zposition Zrotation Xrotation Yrotation
                  JOINT Bip01_L_Toe32
                  {
                    OFFSET 1.63293 0 0
                    CHANNELS 6 Xposition Yposition Zposition Zrotation Xrotation Yrotation
                    JOINT Bip01_L_Toe3Nub
                    {
                      OFFSET 1.7213 0 0
                      CHANNELS 6 Xposition Yposition Zposition Zrotation Xrotation Yrotation
                      End Site
                      {
                        OFFSET 0 0 0
                      }
                    }
                  }
                }
              }
              JOINT Bip01_L_Toe2
              {
                OFFSET 0.994649 0.967162 1.09447
                CHANNELS 6 Xposition Yposition Zposition Zrotation Xrotation Yrotation
                JOINT Bip01_L_Toe21
                {
                  OFFSET 2.202 0 0
                  CHANNELS 6 Xposition Yposition Zposition Zrotation Xrotation Yrotation
                  JOINT Bip01_L_Toe22
                  {
                    OFFSET 1.84926 0 0
                    CHANNELS 6 Xposition Yposition Zposition Zrotation Xrotation Yrotation
                    JOINT Bip01_L_Toe2Nub
                    {
                      OFFSET 1.70976 0 0
                      CHANNELS 6 Xposition Yposition Zposition Zrotation Xrotation Yrotation
                      End Site
                      {
                        OFFSET 0 0 0
                      }
                    }
                  }
                }
              }
              JOINT Bip01_L_Toe1
              {
                OFFSET 1.37483 1.34021 0.0715086
                CHANNELS 6 Xposition Yposition Zposition Zrotation Xrotation Yrotation
                JOINT Bip01_L_Toe11
                {
                  OFFSET 2.26124 0 0
                  CHANNELS 6 Xposition Yposition Zposition Zrotation Xrotation Yrotation
                  JOINT Bip01_L_Toe12
                  {
                    OFFSET 2.22214 0 0
                    CHANNELS 6 Xposition Yposition Zposition Zrotation Xrotation Yrotation
                    JOINT Bip01_L_Toe1Nub
                    {
                      OFFSET 1.61867 0 0
                      CHANNELS 6 Xposition Yposition Zposition Zrotation Xrotation Yrotation
                      End Site
                      {
                        OFFSET 0 0 0
                      }
                    }
                  }
                }
              }
              JOINT Bip01_L_Toe0
              {
                OFFSET 1.40707 0.688009 -0.883564
                CHANNELS 6 Xposition Yposition Zposition Zrotation Xrotation Yrotation
                JOINT Bip01_L_Toe01
                {
                  OFFSET 2.26828 0 0
                  CHANNELS 6 Xposition Yposition Zposition Zrotation Xrotation Yrotation
                  JOINT Bip01_L_Toe02
                  {
                    OFFSET 2.0977 0 0
                    CHANNELS 6 Xposition Yposition Zposition Zrotation Xrotation Yrotation
                    JOINT Bip01_L_Toe0Nub
                    {
                      OFFSET 1.53752 0 0
                      CHANNELS 6 Xposition Yposition Zposition Zrotation Xrotation Yrotation
                      End Site
                      {
                        OFFSET 0 0 0
                      }
                    }
                  }
                }
              }
            }
          }
        }
      }
      JOINT Bip01_Spine1
      {
        OFFSET 4.90674 -0.00437896 0
        CHANNELS 6 Xposition Yposition Zposition Zrotation Xrotation Yrotation
        JOINT Bip01_Neck
        {
          OFFSET 5.56447 -1.28357 0
          CHANNELS 6 Xposition Yposition Zposition Zrotation Xrotation Yrotation
          JOINT Bip01_Neck1
          {
            OFFSET 2.79308 -0.00219964 0
            CHANNELS 6 Xposition Yposition Zposition Zrotation Xrotation Yrotation
            JOINT Bip01_Head
            {
              OFFSET 2.79272 0 0
              CHANNELS 6 Xposition Yposition Zposition Zrotation Xrotation Yrotation
              JOINT BN_Mouth_01
              {
                OFFSET 4.19089 0.0665938 0
                CHANNELS 6 Xposition Yposition Zposition Zrotation Xrotation Yrotation
                End Site
                {
                  OFFSET 0 0 0
                }
              }
              JOINT Bip01_HeadNub
              {
                OFFSET 6.95118 0 0
                CHANNELS 6 Xposition Yposition Zposition Zrotation Xrotation Yrotation
                End Site
                {
                  OFFSET 0 0 0
                }
              }
            }
          }
        }
      }
    }
  }
}
MOTION
Frames:	3
Frame Time:	0.0333333
0.849866 91.44 0 -175.247 -90 -90 0 0 0 -89.9989 6.1813 -89.9989 -5.52397 -0.332276 4.33681e-019 -35.3922 -0.0113068 -179.965 6.48885 7.6294e-006 0.00426974 13.1432 -2.25431e-009 -1.64435e-009 7.08759 0 0.0042037 21.0985 -0.0291931 -0.0230169 4.02121 0.398903 -3.80999e-005 -4.85098 0.598181 3.40366 4.844 -3.22849 -3.65761 -81.6726 -8.74456 35.7459 8.51614 3.8147e-006 0 36.3246 -0.00153571 -20.2371 10.1924 0 3.55271e-015 -30.909 0.675282 -22.3418 14.5949 -1.43857 0.585087 -48.2962 -1.49342 21.2378 14.4623 0 0 -2.99638 -0.00273978 19.865 4.84411 -3.22842 3.65506 98.3175 -8.72062 -144.236 8.51613 1.90735e-006 0 -36.3246 0.00154384 -20.2371 10.1924 3.8147e-006 9.53674e-006 30.909 -0.675284 -22.3419 14.4623 -1.90735e-006 -3.8147e-006 2.99637 0.00273722 19.865 14.5949 1.43854 0.585087 48.2962 1.49342 21.2378 -3.76132 -0.773728 -3.67577 -91.1822 -2.57639 173.566 3.92617 -1.90735e-006 -1.77636e-015 -75.4755 2.27148e-006 9.42644e-006 6.12319 7.62942e-006 -1.77636e-015 99.2145 -0.00452098 0.00534472 9.94775 7.10547e-015 0.00128841 -51.9021 4.7101 6.04958 0.881242 -0.11092 0.0158269 153.252 -4.6141 179.816 2.32137 0 4.76837e-007 81.3939 0.00912514 0.0105986 1.63293 0 0 -87.5445 0.00242515 -0.00253061 1.72129 7.1056e-015 -4.76837e-007 1.26055e-006 1.07189e-005 9.34239e-008 0.994667 0.967472 -1.09416 100.731 3.63895 27.2618 2.202 -7.6295e-006 -2.38418e-007 55.5995 1.61731e-006 -5.39287e-007 1.84922 0 -2.38419e-007 -35.3034 -1.53574e-005 -9.39213e-006 1.70975 7.62957e-006 0 -1.92663e-007 9.67122e-006 -6.89304e-007 1.37472 1.34035 -0.0710845 112.106 -1.01429 -2.49568 2.26122 0 8.88179e-016 31.1828 -1.38332e-005 9.29306e-006 2.22213 3.81476e-006 7.15256e-007 -38.5073 -1.82197e-006 -2.04067e-006 1.61867 -7.62954e-006 2.38419e-007 -2.49242e-007 -2.4429e-008 9.77155e-008 1.40692 0.687939 0.883854 102.531 -7.69388 -31.052 2.26828 1.5259e-005 9.53674e-007 26.14 -0.00735698 -0.0162479 2.09769 -7.10554e-015 0 -61.0262 -0.00355616 0.00602363 1.53752 7.62957e-006 0 2.55813e-007 -1.03554e-007 -1.11424e-007 -4.17168 -0.701447 3.21918 -97.4545 7.91299 -174.151 3.92615 -7.10544e-015 -1.77636e-015 -76.5764 -3.6547e-006 -1.70165e-005 6.12319 1.42109e-014 0 132.919 0.00139758 -0.00320592 9.94775 -0.000740055 -0.000729561 -17.9055 -7.51281 3.63756 0.881233 -0.111024 -0.0158696 109.126 3.14982 -176.738 2.32137 -0.000554567 -2.38419e-007 44.4085 -0.00396662 -0.00971596 1.63293 0.000614174 -7.15256e-007 -43.5109 -0.00129758 0.00324886 1.72131 -4.76846e-007 2.38419e-007 -179.961 0.00755963 0.0010226 0.994849 0.96726 1.0942 72.5258 10.6401 -25.4733 2.20201 0.000869759 3.81469e-006 63.1036 -0.0105094 -0.0304793 1.84926 -0.00118067 -0.00068283 -35.3365 -0.00530618 0.0166609 1.70977 -1.90738e-006 0 179.961 0.00856887 -0.000486639 1.3749 1.34016 0.0711399 77.6217 -0.585784 2.648 2.26124 0.000759132 0.000599146 49.2911 3.13882e-006 -1.52788e-006 2.22211 0.000749599 0.000683784 -38.4925 0.0046166 -0.0132096 1.61867 -1.42111e-014 -8.88178e-016 -179.961 -0.00741083 0.000103962 1.40697 0.687832 -0.883854 83.9474 -3.75322 31.6978 2.26828 7.62947e-006 7.10542e-015 49.9345 1.03532e-005 1.55434e-006 2.09772 1.90738e-006 -3.81469e-006 -61.0221 -1.24782e-005 -1.69824e-005 1.53752 3.81478e-006 -3.81469e-006 179.961 -0.00421468 -0.0044921 4.9071 -0.00428009 4.44089e-016 9.04795 4.95588 -2.0849 5.56426 -1.28359 0.000256538 -1.92277 -6.57525 8.33693 2.79364 -0.00200653 0.000150204 24.6191 -3.8675 -9.68557 2.79273 -1.42109e-014 0 28.0902 -1.35029 0.453163 4.19086 0.0665818 0 -126.987 -0.0432282 -179.978 6.95116 0 -4.44089e-016 -4.86103e-006 9.96127e-006 4.24143e-008 
-3.35935 96.9561 0.016205 163.571 -89.2851 -125.2 0 0 0 -90.0034 9.98147 -89.8638 -5.52397 -0.332276 4.44089e-016 -32.0539 -0.274398 -179.838 6.48885 7.6294e-006 0.00426974 6.13784 1.45201e-008 3.95247e-009 7.08759 2.67875e-012 0.0042037 11.4761 -0.0185717 0.00377042 3.98598 0.664401 0.00932937 3.44093 0.461147 1.87911 4.844 -3.2286 -3.65761 -81.6964 -8.86152 55.847 8.51614 3.8147e-006 -2.84217e-014 36.3243 8.00488e-005 -21.0608 10.1924 -2.27374e-013 -2.20268e-013 -30.8889 0.664411 -24.0653 14.5949 -1.43857 0.585087 -48.2769 -1.56577 15.3098 14.4623 -7.10545e-015 -5.32907e-015 -2.99553 0.000222085 13.9389 4.8441 -3.2283 3.65506 98.2941 -8.84917 -124.144 8.51613 1.90735e-006 -1.42108e-014 -36.3243 -8.12894e-005 -21.0608 10.1924 3.8147e-006 9.53674e-006 30.8889 -0.664404 -24.0653 14.4623 -1.90735e-006 -3.8147e-006 2.21075 2.58223 15.1719 14.5949 1.43854 0.585087 43.6207 1.38211 15.1608 -3.90288 -0.451855 -3.58943 -103.193 -4.09326 173.618 3.92617 -1.90735e-006 -1.33227e-014 -75.1162 2.3829e-006 9.53107e-006 6.12319 7.62942e-006 -8.88179e-016 87.5868 -0.000182482 0.00454832 9.94775 -1.51346e-011 0.00128841 -48.4695 5.59695 3.80207 0.881242 -0.11092 0.0158269 147.767 -4.56817 179.396 2.32137 -2.13165e-014 4.76837e-007 66.4731 -0.0355645 -0.00554425 1.63293 0 -1.5099e-014 -65.2284 -0.00090089 -0.0022548 1.72129 1.42112e-014 -4.76837e-007 1.26055e-006 1.07189e-005 9.34239e-008 0.994667 0.967472 -1.09416 89.749 -2.04996 27.3866 2.202 -7.6295e-006 -2.38418e-007 49.2737 0.0327284 0.0281783 1.84923 0 -2.38418e-007 -26.3009 0.00751054 -0.0152318 1.70976 7.62955e-006 8.88178e-016 -1.92663e-007 9.67122e-006 -6.89304e-007 1.37472 1.34035 -0.0710845 99.1105 -0.426751 -2.65571 2.26122 1.42111e-014 -3.25073e-013 18.2404 0.0161533 0.0490628 2.22213 3.81475e-006 7.15256e-007 -28.6911 0.00973754 -0.0178 1.61867 -7.62952e-006 2.38418e-007 -2.49242e-007 -2.4429e-008 9.77155e-008 1.40692 0.687939 0.883854 88.4059 0.976741 -31.8293 2.26828 1.5259e-005 9.53675e-007 27.2766 0.0144679 0.0268346 2.09769 0 2.66453e-015 -45.4724 0.00705543 -0.00196548 1.53752 7.62956e-006 -1.76747e-013 2.55813e-007 -1.03554e-007 -1.11424e-007 -4.12944 -0.396133 3.31408 -98.1672 8.61297 -174.459 3.92615 0 9.76996e-015 -68.0084 -5.90946e-006 -1.60379e-005 6.12319 -1.42109e-014 -8.88178e-016 111.719 -0.000515734 -0.00129718 9.94774 -0.000740055 -0.000729561 -17.8356 -7.26371 2.87611 0.881232 -0.111024 -0.0158696 120.38 3.72001 -177.422 2.32137 -0.000554567 -2.38418e-007 38.784 0.00319849 -0.00234979 1.63293 0.000614174 -7.15254e-007 -32.4243 -0.00602452 0.0119013 1.72132 -4.76845e-007 2.38419e-007 -179.961 0.00755963 0.0010226 0.994849 0.967261 1.0942 72.5482 10.6371 -25.4946 2.202 0.00086976 3.81471e-006 53.7539 0.00851025 -0.0215733 1.84926 -0.00118067 -0.00068283 -26.3187 0.00182054 0.00828593 1.70977 -1.90738e-006 -7.10542e-015 179.961 0.00856887 -0.000486639 1.3749 1.34016 0.0711399 77.648 -0.578103 2.629 2.26124 0.000759133 0.000599146 30.8873 -0.000134229 -0.0002269 2.22211 0.000749598 0.000683784 -28.6949 -0.00253722 -0.00495855 1.61867 0 -1.5099e-014 -179.961 -0.00741083 0.000103962 1.40697 0.687832 -0.883854 83.9474 -3.75323 31.6978 2.26828 7.62948e-006 7.10542e-015 32.8822 -0.0182265 -0.0281934 2.09772 1.90738e-006 -3.81469e-006 -45.4687 -0.00464497 0.00455094 1.53752 3.81477e-006 -3.81469e-006 179.961 -0.00421468 -0.0044921 4.9071 -0.00428009 -6.72373e-012 11.7338 3.63986 -2.24978 5.56426 -1.28359 0.000256539 4.21375 -4.89148 8.07245 2.79364 -0.00200653 0.000150204 26.8136 -3.13302 -5.85706 2.79273 0 4.44089e-016 10.4982 -1.32203 0.321385 4.19086 0.0665818 1.72705e-010 -135.317 -0.047699 -179.99 6.95116 1.42109e-014 0 -4.86103e-006 9.96127e-006 4.24143e-008 
-11.4679 107.262 0.0320978 -178.737 -87.9471 -133.636 0 0 0 -90.0272 16.7001 -89.7289 -5.52397 -0.332276 -4.44089e-016 -25.1739 -0.861769 -179.501 6.48885 7.6294e-006 0.00426974 -6.50822 -5.2043e-008 -1.4912e-008 7.08759 -4.07141e-012 0.0042037 -5.89531 -0.0188504 -0.00194645 3.88161 1.1264 0.0183032 18.2113 0.146433 -0.986856 4.844 -3.2287 -3.65761 -81.6575 -8.86668 76.7546 8.51614 3.8147e-006 -1.7053e-013 36.3231 -0.00174253 -22.9685 10.1924 -4.47643e-013 -4.40536e-013 -30.8445 0.644329 -28.0448 14.5949 -1.43857 0.585087 -48.2643 -1.67149 1.63506 14.4623 1.42109e-014 0 -2.99741 -0.00336434 0.262291 4.84411 -3.2282 3.65506 98.3326 -8.85918 -103.239 8.51613 1.90735e-006 2.84217e-014 -36.3231 0.0017622 -22.9685 10.1924 3.8147e-006 9.53673e-006 30.8445 -0.644339 -28.0448 14.4623 -1.90735e-006 -3.81469e-006 2.02696 8.83244 4.34201 14.5949 1.43854 0.585087 32.7071 1.03626 1.14657 -4.09854 0.134483 -3.40221 -125.684 -6.85977 172.279 3.92617 -1.90735e-006 -3.41949e-014 -74.9591 2.57183e-006 9.77589e-006 6.12319 7.62942e-006 -8.4377e-015 66.3957 -0.00182311 0.00417111 9.94775 -4.0288e-011 0.00128841 -41.2414 7.62992 -0.899604 0.881242 -0.11092 0.0158269 137.138 -4.3184 178.597 2.32137 -1.77637e-014 4.76837e-007 37.5272 -0.00722142 0.00556028 1.63293 0 -1.61648e-013 -21.8886 0.00542775 -0.02001 1.72131 -7.10554e-015 -4.76837e-007 1.26055e-006 1.07189e-005 9.34238e-008 0.994668 0.967471 -1.09416 68.0068 -12.7139 24.571 2.202 -7.62949e-006 -2.38418e-007 37.0178 0.019958 0.0264679 1.84923 0 -2.38419e-007 -8.82149 0.00212347 -0.0137882 1.70976 7.62952e-006 3.55271e-015 -1.92663e-007 9.67122e-006 -6.89304e-007 1.37472 1.34034 -0.0710845 73.8713 0.748416 -2.58415 2.26123 -1.4211e-014 -8.56204e-013 -6.876 -0.00461453 0.0381196 2.22213 3.81475e-006 7.15256e-007 -9.61793 0.00291045 -0.0171761 1.61867 -7.6295e-006 2.38418e-007 -2.49242e-007 -2.4429e-008 9.77154e-008 1.40692 0.687938 0.883854 60.1674 17.2018 -27.2844 2.26828 1.5259e-005 9.53675e-007 29.5449 0.0100476 0.0166026 2.0977 -1.42111e-014 1.06581e-014 -15.2505 0.00434101 -0.00240331 1.53753 7.62952e-006 -4.33431e-013 2.55813e-007 -1.03554e-007 -1.11424e-007 -3.97934 0.152174 3.50427 -99.5298 9.57858 -175.497 3.92615 -1.42109e-014 2.4869e-014 -52.6971 -9.98076e-006 -1.31987e-005 6.12319 -1.24345e-014 -1.77636e-015 73.8876 0.000387681 -0.00134127 9.94774 -0.000740055 -0.000729561 -17.539 -6.06249 2.87021 0.881233 -0.111024 -0.0158696 142.238 4.41459 -178.99 2.32137 -0.000554566 -2.38422e-007 27.7907 0.0126138 0.0154286 1.63293 0.000614173 -7.15251e-007 -10.8714 0.00193027 -0.00318027 1.72132 -4.76843e-007 2.38419e-007 -179.961 0.00755963 0.0010226 0.994849 0.96726 1.0942 72.5701 10.6342 -25.5154 2.202 0.00086976 3.81474e-006 35.6119 0.0415723 0.0195197 1.84926 -0.00118066 -0.00068283 -8.8215 0.00738128 -0.0129711 1.70977 -1.90738e-006 0 179.961 0.00856888 -0.00048664 1.3749 1.34016 0.07114 77.648 -0.5781 2.62899 2.26124 0.000759133 0.000599146 -4.83099 0.00263849 -0.0311877 2.22211 0.000749597 0.000683784 -9.646 -0.00862832 0.0232775 1.61868 0 -4.33431e-013 -179.961 -0.00741082 0.000103958 1.40697 0.687832 -0.883854 83.9474 -3.75322 31.6978 2.26828 7.62948e-006 -2.34479e-013 -0.24829 0.000166907 -0.0384592 2.09773 1.90737e-006 -3.81469e-006 -15.2576 -0.00366011 0.0133706 1.53753 3.81475e-006 -3.81469e-006 179.961 -0.00421468 -0.00449209 4.9071 -0.00428009 6.06448e-012 16.5529 1.28553 -2.60811 5.56426 -1.28359 0.000256549 15.4243 -1.874 6.85772 2.79364 -0.00200653 0.000150204 30.509 -1.39967 0.969002 2.79273 -1.42109e-014 1.77636e-015 -21.2441 2.15855 -0.410085 4.19086 0.0665818 4.13135e-010 -150.353 -0.0540009 179.993 6.95116 -1.42109e-014 0 -4.86103e-006 9.96127e-006 4.24143e-008 
